<svg width="229" height="184" viewBox="0 0 229 184" fill="none" xmlns="http://www.w3.org/2000/svg">
<path d="M185.057 40.0375V62.5148C185.057 64.3759 183.554 65.8864 181.702 65.8864H155.43C153.578 65.8864 152.075 64.3759 152.075 62.5148V40.0375C152.075 38.1719 153.578 36.6659 155.43 36.6659H181.702C183.554 36.6659 185.057 38.1719 185.057 40.0375Z" fill="#555760"/>
<path d="M16.013 36.6635H3.3545C1.50192 36.6635 0 38.1726 0 40.035V62.5124C0 64.3748 1.50192 65.884 3.3545 65.884H16.013C17.8656 65.884 19.3675 64.3748 19.3675 62.5124V40.035C19.3675 38.173 17.8656 36.6635 16.013 36.6635Z" fill="#555760"/>
<path d="M229 40.0372V62.5145C229 64.3756 227.497 65.8861 225.645 65.8861H212.988C211.136 65.8861 209.633 64.3756 209.633 62.5145V40.0372C209.633 38.1716 211.136 36.6656 212.988 36.6656H225.645C227.497 36.6656 229 38.1716 229 40.0372Z" fill="#555760"/>
<path d="M229 51.6039V62.5144C229 64.3755 227.497 65.886 225.645 65.886H212.988C211.136 65.886 209.633 64.3755 209.633 62.5144V51.6039C209.633 53.465 211.136 54.9755 212.988 54.9755H225.645C227.497 54.9755 229 53.465 229 51.6039Z" fill="#2E384D"/>
<path d="M19.3666 51.6017V62.5122C19.3666 64.3733 17.8638 65.8838 16.0121 65.8838H3.35449C1.50281 65.8838 0 64.3733 0 62.5122V51.6017C0 53.4628 1.50281 54.9733 3.35449 54.9733H16.0121C17.8638 54.9733 19.3666 53.4628 19.3666 51.6017Z" fill="#2E384D"/>
<path d="M185.057 54.9766V62.5155C185.057 64.3766 183.554 65.8871 181.702 65.8871H155.43C153.578 65.8871 152.075 64.3766 152.075 62.5155V54.9766H185.057Z" fill="#2E384D"/>
<path d="M30.5399 22.1453V80.402C30.5399 82.8835 29.538 85.1267 27.9189 86.7541C26.3043 88.3814 24.068 89.3839 21.5991 89.3839C19.971 89.3839 18.4458 88.9478 17.1309 88.1791C14.4562 86.6327 12.6582 83.7286 12.6582 80.402V22.1453C12.6582 18.8186 14.4562 15.9146 17.1309 14.3681C18.4458 13.5994 19.971 13.1633 21.5991 13.1633C26.5369 13.1633 30.5399 17.1823 30.5399 22.1453Z" fill="#289C6C"/>
<path d="M30.5399 22.1455V80.4022C30.5399 82.8837 29.538 85.1269 27.9189 86.7543C26.3043 88.3816 24.068 89.3841 21.599 89.3841C19.971 89.3841 18.4458 88.948 17.1309 88.1793C17.8107 87.7882 18.4324 87.3072 18.9825 86.7543C20.5972 85.1269 21.599 82.8837 21.599 80.4022V22.1455C21.599 18.8188 19.801 15.9192 17.1309 14.3683C18.4458 13.5996 19.971 13.1635 21.599 13.1635C26.5369 13.1635 30.5399 17.1825 30.5399 22.1455Z" fill="#2CB67D"/>
<path d="M216.366 22.1444V80.4011C216.366 82.8826 215.364 85.1258 213.745 86.7532C212.13 88.3805 209.894 89.383 207.425 89.383C205.797 89.383 204.272 88.9469 202.957 88.1782C200.282 86.6318 198.484 83.7277 198.484 80.4011V22.1444C198.484 18.8177 200.282 15.9136 202.957 14.3672C204.272 13.5985 205.797 13.1624 207.425 13.1624C212.363 13.1624 216.366 17.1814 216.366 22.1444Z" fill="#239566"/>
<path d="M216.366 22.1444V80.4011C216.366 82.8826 215.364 85.1258 213.745 86.7532C212.13 88.3805 209.894 89.383 207.425 89.383C205.797 89.383 204.272 88.9469 202.957 88.1782C203.636 87.7871 204.258 87.3061 204.808 86.7532C206.423 85.1258 207.425 82.8826 207.425 80.4011V22.1444C207.425 18.8177 205.627 15.9181 202.957 14.3672C204.272 13.5985 205.797 13.1624 207.425 13.1624C212.363 13.1624 216.366 17.1814 216.366 22.1444Z" fill="#2CB67D"/>
<path d="M158.784 39.7406V62.5146C158.784 63.2564 158.538 63.9801 158.086 64.569L140.544 87.4509L145.759 142.309C145.849 143.253 145.535 144.193 144.9 144.898C144.265 145.6 143.366 146 142.418 146H86.5814C85.6332 146 84.7342 145.6 84.0991 144.898C83.4639 144.193 83.1509 143.253 83.2403 142.309L84.193 132.302L84.3629 130.504L88.4018 87.9814L71.5443 74.8996C70.7213 74.2613 70.2383 73.2767 70.2383 72.2338V26.7532C70.2383 24.8921 71.7411 23.3816 73.5928 23.3816H142.499C151.475 23.3816 158.784 30.7182 158.784 39.7406Z" fill="#FFD3C0"/>
<path d="M158.783 39.7406V62.5146C158.783 63.2564 158.537 63.9801 158.086 64.569L140.544 87.4509L145.759 142.309C145.848 143.253 145.535 144.193 144.9 144.898C144.265 145.6 143.366 146 142.418 146H86.5812C85.633 146 84.734 145.6 84.0989 144.898C83.4638 144.193 83.1507 143.253 83.2401 142.309L84.1928 132.302L84.3628 130.504H130.342C131.29 130.504 132.189 130.104 132.824 129.403C133.459 128.697 133.772 127.757 133.683 126.813L130.257 87.2397L149.588 61.6605C150.039 61.0716 150.285 60.3478 150.285 59.6015V36.832C150.285 31.2621 144.82 26.3351 140.575 23.3816H142.498C151.475 23.3816 158.783 30.7182 158.783 39.7406Z" fill="#FFB9A1"/>
<path d="M140.396 40.0374V52.1751C140.396 52.827 140.208 53.4698 139.85 54.0138L139.224 54.9758L133.137 64.3533C132.519 65.3109 131.459 65.8863 130.328 65.8863H47.2974C45.4457 65.8863 43.9429 64.3758 43.9429 62.5147V40.0374C43.9429 39.1338 44.3007 38.2707 44.9403 37.6368C45.5754 37.0029 46.4476 36.6523 47.3376 36.6658H137.077C138.915 36.6838 140.396 38.1897 140.396 40.0374Z" fill="#555760"/>
<path d="M43.9429 54.9756H139.224L133.137 64.3531C132.519 65.3106 131.459 65.8861 130.328 65.8861H47.2974C45.4457 65.8861 43.9429 64.3756 43.9429 62.5145V54.9756Z" fill="#2E384D"/>
<path d="M50.6531 10.9067V91.6407C50.6531 97.2151 46.1447 101.747 40.5986 101.747C38.7692 101.747 37.0517 101.252 35.5713 100.384C32.5657 98.6401 30.5396 95.3764 30.5396 91.6407V10.9067C30.5396 7.17097 32.5657 3.90727 35.5713 2.16303C37.0517 1.2954 38.7692 0.800903 40.5986 0.800903C46.1447 0.800903 50.6531 5.33233 50.6531 10.9067Z" fill="#4953B8"/>
<path d="M50.6526 10.9068V91.6408C50.6526 97.2152 46.1442 101.747 40.5981 101.747C38.7688 101.747 37.0513 101.252 35.5708 100.385C38.572 98.6403 40.5981 95.3721 40.5981 91.6408V10.9068C40.5981 7.17559 38.572 3.90739 35.5708 2.16315C37.0513 1.29553 38.7688 0.801025 40.5981 0.801025C46.1442 0.801025 50.6526 5.33245 50.6526 10.9068Z" fill="#5965E0"/>
<path d="M198.461 10.9058V91.6398C198.461 97.2142 193.953 101.746 188.407 101.746C186.577 101.746 184.86 101.251 183.379 100.383C180.374 98.6393 178.348 95.3755 178.348 91.6398V10.9058C178.348 7.17006 180.374 3.90635 183.379 2.16211C184.86 1.29449 186.577 0.799988 188.407 0.799988C193.953 0.799988 198.461 5.33142 198.461 10.9058Z" fill="#5297E8"/>
<path d="M198.461 10.9058V91.6398C198.461 97.2142 193.953 101.746 188.407 101.746C186.577 101.746 184.86 101.251 183.379 100.383C186.381 98.6393 188.407 95.3711 188.407 91.6398V10.9058C188.407 7.17456 186.381 3.90635 183.379 2.16211C184.86 1.29449 186.577 0.799988 188.407 0.799988C193.953 0.799988 198.461 5.33142 198.461 10.9058Z" fill="#5965E0"/>
<path d="M79.0093 14.5458C74.1658 14.5458 70.2397 18.492 70.2397 23.3601V42.7881C70.2397 47.6563 74.1658 51.6024 79.0093 51.6024C83.8527 51.6024 87.7788 47.6563 87.7788 42.7881V23.3601C87.7788 18.4924 83.8523 14.5458 79.0093 14.5458Z" fill="#FFD3C0"/>
<path d="M96.5483 14.5458C91.7049 14.5458 87.7788 18.492 87.7788 23.3601V42.7881C87.7788 47.6563 91.7049 51.6024 96.5483 51.6024C101.392 51.6024 105.318 47.6563 105.318 42.7881V23.3601C105.318 18.4924 101.392 14.5458 96.5483 14.5458Z" fill="#FFB9A1"/>
<path d="M114.087 14.5458C109.244 14.5458 105.318 18.492 105.318 23.3601V42.7881C105.318 47.6563 109.244 51.6024 114.087 51.6024C118.931 51.6024 122.857 47.6563 122.857 42.7881V23.3601C122.857 18.4924 118.931 14.5458 114.087 14.5458Z" fill="#FFD3C0"/>
<path d="M131.627 14.5458C126.784 14.5458 122.857 18.492 122.857 23.3601V42.7881C122.857 47.6563 126.784 51.6024 131.627 51.6024C136.47 51.6024 140.397 47.6563 140.397 42.7881V23.3601C140.396 18.4924 136.47 14.5458 131.627 14.5458Z" fill="#FFB9A1"/>
<path d="M159.728 182.867C159.088 183.586 158.176 184 157.219 184H71.7819C70.8247 184 69.9123 183.586 69.2727 182.867C68.6376 182.148 68.3379 181.19 68.4497 180.233L69.3845 172.312L72.9269 142.233C73.1237 140.538 74.5549 139.257 76.259 139.257H152.741C154.446 139.257 155.877 140.538 156.074 142.233L160.551 180.233C160.663 181.19 160.363 182.148 159.728 182.867Z" fill="#EEF6FF"/>
<path d="M159.728 182.867C159.088 183.586 158.176 184 157.219 184H71.7819C70.8247 184 69.9123 183.586 69.2727 182.867C68.6376 182.148 68.3379 181.19 68.4497 180.233L69.3845 172.312H143.814C144.771 172.312 145.684 171.898 146.319 171.179C146.958 170.46 147.254 169.502 147.142 168.545L144.185 142.233C143.984 140.538 142.553 139.257 140.853 139.257H152.741C154.446 139.257 155.877 140.538 156.074 142.233L160.551 180.233C160.663 181.19 160.363 182.148 159.728 182.867Z" fill="#DBE7EF"/>
</svg>
