<svg width="238" height="122" viewBox="0 0 238 122" fill="none" xmlns="http://www.w3.org/2000/svg">
<path d="M118.872 0C34.8118 1.4895 0 61 0 61C0 61 34.8118 120.511 118.872 122C202.932 120.511 237.744 61 237.744 61C237.744 61 202.932 1.4895 118.872 0Z" fill="#D8ECFE"/>
<path d="M222.952 42.757C224.045 44.3561 224.58 45.2698 224.58 45.2698C224.58 45.2698 189.769 104.78 105.709 106.27C52.5018 105.327 19.0333 81.1421 1.62744 63.5133C9.36943 74.8401 45.2116 120.694 118.871 122C202.932 120.51 237.743 60.9999 237.743 60.9999C237.743 60.9999 233.046 52.9795 222.952 42.757Z" fill="#C4E2FF"/>
<path d="M118.872 122C152.7 122 180.124 94.6894 180.124 61C180.124 27.3106 152.7 0 118.872 0C85.0431 0 57.6196 27.3106 57.6196 61C57.6196 94.6894 85.0431 122 118.872 122Z" fill="#0182FC"/>
<path d="M118.872 95.0805C100.002 95.0805 84.6504 79.792 84.6504 60.9996C84.6504 42.2068 100.002 26.9183 118.872 26.9183C137.742 26.9183 153.094 42.2068 153.094 60.9996C153.094 79.792 137.742 95.0805 118.872 95.0805Z" fill="#465A61"/>
<path d="M139.311 57.132C130.182 57.132 122.754 49.7354 122.754 40.644C122.754 31.5521 130.182 24.1559 139.311 24.1559C148.44 24.1559 155.867 31.5526 155.867 40.644C155.866 49.7354 148.44 57.132 139.311 57.132Z" fill="#D8ECFE"/>
<path d="M153.561 10.723C160.351 20.5451 164.329 32.444 164.329 45.2695C164.329 78.9592 136.905 106.27 103.077 106.27C90.1979 106.27 78.2499 102.308 68.3877 95.5462C79.4326 111.523 97.9222 122 118.872 122C152.701 122 180.124 94.6888 180.124 60.9997C180.124 40.1361 169.604 21.722 153.561 10.723V10.723Z" fill="#0172FB"/>
</svg>
