<svg width="64" height="64" viewBox="0 0 64 64" fill="none" xmlns="http://www.w3.org/2000/svg">
<path fill-rule="evenodd" clip-rule="evenodd" d="M32.3153 39.6307C41.8783 39.6307 49.6307 31.8783 49.6307 22.3153C49.6307 12.7523 41.8783 5 32.3153 5C22.7523 5 15 12.7523 15 22.3153C15 31.8783 22.7523 39.6307 32.3153 39.6307ZM32.3153 35.4554C39.5724 35.4554 45.4553 29.5724 45.4553 22.3153C45.4553 15.0583 39.5724 9.17533 32.3153 9.17533C25.0583 9.17533 19.1753 15.0583 19.1753 22.3153C19.1753 29.5724 25.0583 35.4554 32.3153 35.4554Z" fill="#2CB67D"/>
<path d="M26.0373 40.9858H21.3239V58L32.1648 51.0942L43.0057 58V34.2102H38.2922V49.6199L32.1648 45.2561L26.0373 49.6199V40.9858Z" fill="#2CB67D"/>
<circle cx="28.7017" cy="22.0142" r="3.46307" fill="white"/>
<circle cx="40.446" cy="22.0142" r="3.46307" fill="white"/>
</svg>
