<svg width="95" height="23" viewBox="0 0 95 23" fill="none" xmlns="http://www.w3.org/2000/svg">
<path fill-rule="evenodd" clip-rule="evenodd" d="M7.2173 14.4346C11.2033 14.4346 14.4346 11.2033 14.4346 7.2173C14.4346 3.2313 11.2033 0 7.2173 0C3.23129 0 0 3.2313 0 7.2173C0 11.2033 3.23129 14.4346 7.2173 14.4346ZM7.2173 12.6943C10.2421 12.6943 12.6943 10.2421 12.6943 7.2173C12.6943 4.19246 10.2421 1.74034 7.2173 1.74034C4.19246 1.74034 1.74034 4.19246 1.74034 7.2173C1.74034 10.2421 4.19246 12.6943 7.2173 12.6943Z" fill="white"/>
<path d="M4.60052 14.9994H2.63589V22.0912L7.15455 19.2128L11.6732 22.0912V12.1753H9.70857V18.5983L7.15455 16.7794L4.60052 18.5983V14.9994Z" fill="white"/>
<circle cx="5.71104" cy="7.09184" r="1.44346" fill="white"/>
<circle cx="10.6063" cy="7.09184" r="1.44346" fill="white"/>
<path d="M28.9002 17.1225H28.4834C27.5688 17.1225 26.8627 16.881 26.3649 16.3979C25.8671 15.9149 25.6182 15.219 25.6182 14.3104V11.1359C25.6182 10.2273 25.8671 9.53147 26.3649 9.0484C26.8627 8.56533 27.5688 8.3238 28.4834 8.3238H32.4947C32.7494 8.3238 32.8768 8.44456 32.8768 8.6861V16.7602C32.8768 17.0018 32.7494 17.1225 32.4947 17.1225H31.0361C30.793 17.1225 30.6714 17.0018 30.6714 16.7602V16.1909H30.6019C30.4746 16.5014 30.2489 16.7372 29.9247 16.8983C29.6006 17.0478 29.259 17.1225 28.9002 17.1225ZM30.6714 13.9136V10.4113C30.6714 10.2848 30.6019 10.2216 30.463 10.2216H28.8307C28.4603 10.2216 28.1998 10.3021 28.0493 10.4631C27.8988 10.6126 27.8235 10.8714 27.8235 11.2395V14.2069C27.8235 14.5749 27.8988 14.8395 28.0493 15.0005C28.1998 15.15 28.4603 15.2248 28.8307 15.2248H29.4732C30.272 15.2248 30.6714 14.7877 30.6714 13.9136Z" fill="white"/>
<path d="M40.4233 15.5871V16.7775C40.4233 16.904 40.3943 16.996 40.3364 17.0535C40.2901 17.0995 40.1975 17.1225 40.0586 17.1225H37.4712C36.5566 17.1225 35.8505 16.881 35.3527 16.3979C34.8549 15.9149 34.606 15.219 34.606 14.3104V11.1359C34.606 10.2273 34.8549 9.53147 35.3527 9.0484C35.8505 8.56533 36.5566 8.3238 37.4712 8.3238H40.0586C40.3017 8.3238 40.4233 8.44456 40.4233 8.6861V9.87651C40.4233 10.003 40.3943 10.095 40.3364 10.1526C40.2901 10.1986 40.1975 10.2216 40.0586 10.2216H37.8185C37.4596 10.2216 37.1991 10.3021 37.0371 10.4631C36.8866 10.6126 36.8113 10.8714 36.8113 11.2395V14.2069C36.8113 14.5749 36.8866 14.8395 37.0371 15.0005C37.1991 15.15 37.4596 15.2248 37.8185 15.2248H40.0586C40.3017 15.2248 40.4233 15.3455 40.4233 15.5871Z" fill="white"/>
<path d="M42.11 10.2216H41.4154C41.2765 10.2216 41.1781 10.1986 41.1202 10.1526C41.0739 10.1065 41.0507 10.0145 41.0507 9.87651V8.6861C41.0507 8.44456 41.1723 8.3238 41.4154 8.3238H42.11C42.2373 8.3238 42.301 8.26054 42.301 8.13402V6.49504C42.301 6.25351 42.4283 6.13274 42.683 6.13274H44.1417C44.3848 6.13274 44.5064 6.25351 44.5064 6.49504V8.13402C44.5064 8.26054 44.5758 8.3238 44.7147 8.3238H46.0692C46.3123 8.3238 46.4339 8.44456 46.4339 8.6861V9.87651C46.4339 10.003 46.4049 10.095 46.3471 10.1526C46.3008 10.1986 46.2081 10.2216 46.0692 10.2216H44.7147C44.5758 10.2216 44.5064 10.2848 44.5064 10.4113V14.2241C44.5064 14.5807 44.5874 14.8395 44.7495 15.0005C44.9115 15.15 45.1778 15.2248 45.5483 15.2248H46.2429C46.486 15.2248 46.6075 15.3455 46.6075 15.5871V16.7775C46.6075 16.904 46.5786 16.996 46.5207 17.0535C46.4744 17.0995 46.3818 17.1225 46.2429 17.1225H45.1836C44.269 17.1225 43.5571 16.881 43.0477 16.3979C42.5499 15.9149 42.301 15.2248 42.301 14.3276V10.4113C42.301 10.2848 42.2373 10.2216 42.11 10.2216Z" fill="white"/>
<path d="M48.1277 6.84009V5.33913C48.1277 5.1091 48.2434 4.99408 48.475 4.99408H49.9857C50.2173 4.99408 50.333 5.10334 50.333 5.32188V6.84009C50.333 7.07012 50.2173 7.18514 49.9857 7.18514H48.475C48.2434 7.18514 48.1277 7.07012 48.1277 6.84009ZM48.1277 16.7602V8.6861C48.1277 8.44456 48.2434 8.3238 48.475 8.3238H49.9684C50.2115 8.3238 50.333 8.44456 50.333 8.6861V16.7602C50.333 16.9098 50.3041 17.0075 50.2462 17.0535C50.1999 17.0995 50.1131 17.1225 49.9857 17.1225H48.4923C48.2492 17.1225 48.1277 17.0018 48.1277 16.7602Z" fill="white"/>
<path d="M56.5683 17.1225H55.0228C54.1083 17.1225 53.4021 16.881 52.9043 16.3979C52.4065 15.9149 52.1576 15.219 52.1576 14.3104V11.1359C52.1576 10.2273 52.4065 9.53147 52.9043 9.0484C53.4021 8.56533 54.1083 8.3238 55.0228 8.3238H56.5683C57.4713 8.3238 58.1717 8.57108 58.6695 9.06565C59.1789 9.54872 59.4336 10.2388 59.4336 11.1359V14.3104C59.4336 15.2075 59.1789 15.9034 58.6695 16.3979C58.1717 16.881 57.4713 17.1225 56.5683 17.1225ZM55.3528 15.242H56.2384C56.6088 15.242 56.8693 15.1673 57.0198 15.0177C57.1819 14.8682 57.2629 14.6094 57.2629 14.2414V11.205C57.2629 10.8369 57.1819 10.5781 57.0198 10.4286C56.8693 10.2791 56.6088 10.2043 56.2384 10.2043H55.3528C54.9823 10.2043 54.7218 10.2791 54.5713 10.4286C54.4208 10.5781 54.3456 10.8369 54.3456 11.205V14.2414C54.3456 14.6094 54.4208 14.8682 54.5713 15.0177C54.7218 15.1673 54.9823 15.242 55.3528 15.242Z" fill="white"/>
<path d="M63.0071 17.1225H61.5311C61.288 17.1225 61.1664 17.0018 61.1664 16.7602V8.6861C61.1664 8.44456 61.288 8.3238 61.5311 8.3238H63.0071C63.2502 8.3238 63.3718 8.44456 63.3718 8.6861V9.25543H63.4412C63.6959 8.63434 64.2632 8.3238 65.143 8.3238H65.6987C67.5162 8.3238 68.425 9.26118 68.425 11.1359V16.7602C68.425 17.0018 68.2977 17.1225 68.043 17.1225H66.5843C66.3412 17.1225 66.2196 17.0018 66.2196 16.7602V11.2395C66.2196 10.8714 66.1386 10.6126 65.9765 10.4631C65.826 10.3021 65.5656 10.2216 65.1951 10.2216H64.57C63.7712 10.2216 63.3718 10.6586 63.3718 11.5327V16.7602C63.3718 17.0018 63.2502 17.1225 63.0071 17.1225Z" fill="white"/>
<path d="M72.6523 15.2248H74.4236C74.794 15.2248 75.0545 15.15 75.205 15.0005C75.3671 14.8395 75.4481 14.5749 75.4481 14.2069V11.205C75.4481 10.8369 75.3671 10.5781 75.205 10.4286C75.0545 10.2676 74.794 10.1871 74.4236 10.1871H73.6595C72.8607 10.1871 72.4613 10.6241 72.4613 11.4982V15.035C72.4613 15.1615 72.525 15.2248 72.6523 15.2248ZM70.2559 16.7602V5.35638C70.2559 5.11485 70.3775 4.99408 70.6206 4.99408H72.0966C72.3398 4.99408 72.4613 5.11485 72.4613 5.35638V9.23817H72.5308C72.6581 8.92763 72.8839 8.69185 73.208 8.53083C73.5322 8.3698 73.8737 8.28929 74.2325 8.28929H74.7882C75.7028 8.28929 76.409 8.53083 76.9068 9.01389C77.4046 9.49696 77.6535 10.1928 77.6535 11.1014V14.3104C77.6535 15.219 77.4046 15.9149 76.9068 16.3979C76.409 16.881 75.7028 17.1225 74.7882 17.1225H70.6206C70.3775 17.1225 70.2559 17.0018 70.2559 16.7602Z" fill="white"/>
<path d="M83.6334 17.1225H82.0879C81.1734 17.1225 80.4672 16.881 79.9694 16.3979C79.4716 15.9149 79.2227 15.219 79.2227 14.3104V11.1359C79.2227 10.2273 79.4716 9.53147 79.9694 9.0484C80.4672 8.56533 81.1734 8.3238 82.0879 8.3238H83.6334C84.5364 8.3238 85.2368 8.57108 85.7346 9.06565C86.244 9.54872 86.4987 10.2388 86.4987 11.1359V14.3104C86.4987 15.2075 86.244 15.9034 85.7346 16.3979C85.2368 16.881 84.5364 17.1225 83.6334 17.1225ZM82.4179 15.242H83.3035C83.674 15.242 83.9344 15.1673 84.0849 15.0177C84.247 14.8682 84.328 14.6094 84.328 14.2414V11.205C84.328 10.8369 84.247 10.5781 84.0849 10.4286C83.9344 10.2791 83.674 10.2043 83.3035 10.2043H82.4179C82.0474 10.2043 81.7869 10.2791 81.6365 10.4286C81.486 10.5781 81.4107 10.8369 81.4107 11.205V14.2414C81.4107 14.6094 81.486 14.8682 81.6365 15.0177C81.7869 15.1673 82.0474 15.242 82.4179 15.242Z" fill="white"/>
<path d="M89.6555 17.1225H87.9016C87.6006 17.1225 87.5196 17.0018 87.6585 16.7602L89.8465 12.6369L87.6585 8.6861C87.5427 8.44456 87.6122 8.3238 87.8669 8.3238H89.6381C89.9159 8.3238 90.0954 8.44456 90.1764 8.6861L91.2704 11.3085H91.3399L92.295 8.6861C92.376 8.44456 92.5554 8.3238 92.8333 8.3238H94.5698C94.8708 8.3238 94.946 8.44456 94.7955 8.6861L92.7117 12.6369L94.9518 16.7602C95.0097 16.8637 95.0155 16.95 94.9692 17.019C94.9344 17.088 94.8592 17.1225 94.7434 17.1225H92.9548C92.7117 17.1225 92.5381 17.0018 92.4339 16.7602L91.3399 14.1206H91.2704L90.1764 16.7602C90.0954 17.0018 89.9217 17.1225 89.6555 17.1225Z" fill="white"/>
</svg>
