<svg width="506" height="124" viewBox="0 0 506 124" fill="none" xmlns="http://www.w3.org/2000/svg">
<path fill-rule="evenodd" clip-rule="evenodd" d="M40.4649 80.9298C62.8131 80.9298 80.9298 62.813 80.9298 40.4649C80.9298 18.1168 62.8131 0 40.4649 0C18.1167 0 0 18.1168 0 40.4649C0 62.813 18.1167 80.9298 40.4649 80.9298ZM40.4649 71.1723C57.4241 71.1723 71.1723 57.4241 71.1723 40.4649C71.1723 23.5057 57.4241 9.7575 40.4649 9.7575C23.5057 9.7575 9.7575 23.5057 9.7575 40.4649C9.7575 57.4241 23.5057 71.1723 40.4649 71.1723Z" fill="#2CB67D"/>
<path d="M25.7935 84.0966H14.7785V123.858L40.113 107.719L65.4476 123.858V68.2625H54.4326V104.274L40.113 94.0761L25.7935 104.274V84.0966Z" fill="#2CB67D"/>
<circle cx="32.02" cy="39.7612" r="8.09298" fill="white"/>
<circle cx="59.4658" cy="39.7612" r="8.09298" fill="white"/>
<path d="M135.401 96H133.064C127.937 96 123.977 94.6458 121.186 91.9374C118.395 89.229 117 85.3276 117 80.2333V62.4353C117 57.3409 118.395 53.4395 121.186 50.7312C123.977 48.0228 127.937 46.6686 133.064 46.6686H155.555C156.983 46.6686 157.696 47.3457 157.696 48.6999V93.9687C157.696 95.3229 156.983 96 155.555 96H147.376C146.013 96 145.332 95.3229 145.332 93.9687V90.7767H144.942C144.228 92.5178 142.963 93.8397 141.145 94.7425C139.328 95.5808 137.413 96 135.401 96ZM145.332 78.0085V58.3727C145.332 57.6633 144.942 57.3087 144.163 57.3087H135.012C132.935 57.3087 131.474 57.7601 130.63 58.6629C129.787 59.5012 129.365 60.9521 129.365 63.0156V79.6529C129.365 81.7164 129.787 83.1996 130.63 84.1024C131.474 84.9407 132.935 85.3599 135.012 85.3599H138.614C143.092 85.3599 145.332 82.9094 145.332 78.0085Z" fill="white"/>
<path d="M200.007 87.3912V94.0654C200.007 94.7748 199.845 95.2907 199.52 95.6131C199.261 95.871 198.741 96 197.962 96H183.456C178.328 96 174.369 94.6458 171.578 91.9374C168.787 89.229 167.391 85.3276 167.391 80.2333V62.4353C167.391 57.3409 168.787 53.4395 171.578 50.7312C174.369 48.0228 178.328 46.6686 183.456 46.6686H197.962C199.325 46.6686 200.007 47.3457 200.007 48.6999V55.3741C200.007 56.0834 199.845 56.5993 199.52 56.9218C199.261 57.1797 198.741 57.3087 197.962 57.3087H185.403C183.391 57.3087 181.93 57.7601 181.022 58.6629C180.178 59.5012 179.756 60.9521 179.756 63.0156V79.6529C179.756 81.7164 180.178 83.1996 181.022 84.1024C181.93 84.9407 183.391 85.3599 185.403 85.3599H197.962C199.325 85.3599 200.007 86.037 200.007 87.3912Z" fill="white"/>
<path d="M209.464 57.3087H205.569C204.791 57.3087 204.239 57.1797 203.914 56.9218C203.655 56.6638 203.525 56.1479 203.525 55.3741V48.6999C203.525 47.3457 204.206 46.6686 205.569 46.6686H209.464C210.178 46.6686 210.535 46.3139 210.535 45.6045V36.4154C210.535 35.0612 211.249 34.3841 212.677 34.3841H220.855C222.218 34.3841 222.9 35.0612 222.9 36.4154V45.6045C222.9 46.3139 223.289 46.6686 224.068 46.6686H231.662C233.025 46.6686 233.706 47.3457 233.706 48.6999V55.3741C233.706 56.0834 233.544 56.5993 233.22 56.9218C232.96 57.1797 232.441 57.3087 231.662 57.3087H224.068C223.289 57.3087 222.9 57.6633 222.9 58.3727V79.7496C222.9 81.7487 223.354 83.1996 224.263 84.1024C225.171 84.9407 226.664 85.3599 228.741 85.3599H232.636C233.999 85.3599 234.68 86.037 234.68 87.3912V94.0654C234.68 94.7748 234.518 95.2907 234.193 95.6131C233.934 95.871 233.414 96 232.636 96H226.697C221.569 96 217.577 94.6458 214.721 91.9374C211.93 89.229 210.535 85.3599 210.535 80.33V58.3727C210.535 57.6633 210.178 57.3087 209.464 57.3087Z" fill="white"/>
<path d="M243.203 38.3499V29.9346C243.203 28.6449 243.852 28 245.15 28H253.62C254.919 28 255.568 28.6126 255.568 29.8378V38.3499C255.568 39.6396 254.919 40.2845 253.62 40.2845H245.15C243.852 40.2845 243.203 39.6396 243.203 38.3499ZM243.203 93.9687V48.6999C243.203 47.3457 243.852 46.6686 245.15 46.6686H253.523C254.886 46.6686 255.568 47.3457 255.568 48.6999V93.9687C255.568 94.807 255.405 95.3551 255.081 95.6131C254.821 95.871 254.334 96 253.62 96H245.247C243.884 96 243.203 95.3229 243.203 93.9687Z" fill="white"/>
<path d="M290.527 96H281.862C276.734 96 272.775 94.6458 269.984 91.9374C267.193 89.229 265.797 85.3276 265.797 80.2333V62.4353C265.797 57.3409 267.193 53.4395 269.984 50.7312C272.775 48.0228 276.734 46.6686 281.862 46.6686H290.527C295.589 46.6686 299.516 48.055 302.307 50.8279C305.163 53.5363 306.591 57.4054 306.591 62.4353V80.2333C306.591 85.2632 305.163 89.1645 302.307 91.9374C299.516 94.6458 295.589 96 290.527 96ZM283.712 85.4566H288.677C290.754 85.4566 292.214 85.0375 293.058 84.1991C293.967 83.3608 294.421 81.9099 294.421 79.8464V62.8222C294.421 60.7587 293.967 59.3077 293.058 58.4694C292.214 57.6311 290.754 57.2119 288.677 57.2119H283.712C281.634 57.2119 280.174 57.6311 279.33 58.4694C278.487 59.3077 278.065 60.7587 278.065 62.8222V79.8464C278.065 81.9099 278.487 83.3608 279.33 84.1991C280.174 85.0375 281.634 85.4566 283.712 85.4566Z" fill="white"/>
<path d="M326.627 96H318.351C316.988 96 316.307 95.3229 316.307 93.9687V48.6999C316.307 47.3457 316.988 46.6686 318.351 46.6686H326.627C327.99 46.6686 328.671 47.3457 328.671 48.6999V51.8919H329.061C330.489 48.4097 333.669 46.6686 338.602 46.6686H341.718C351.908 46.6686 357.003 51.9241 357.003 62.4353V93.9687C357.003 95.3229 356.289 96 354.861 96H346.683C345.32 96 344.638 95.3229 344.638 93.9687V63.0156C344.638 60.9521 344.184 59.5012 343.275 58.6629C342.431 57.7601 340.971 57.3087 338.894 57.3087H335.389C330.911 57.3087 328.671 59.7591 328.671 64.66V93.9687C328.671 95.3229 327.99 96 326.627 96Z" fill="white"/>
<path d="M380.704 85.3599H390.635C392.712 85.3599 394.172 84.9407 395.016 84.1024C395.925 83.1996 396.379 81.7164 396.379 79.6529V62.8222C396.379 60.7587 395.925 59.3077 395.016 58.4694C394.172 57.5666 392.712 57.1152 390.635 57.1152H386.351C381.872 57.1152 379.633 59.5657 379.633 64.4666V84.2959C379.633 85.0052 379.99 85.3599 380.704 85.3599ZM367.268 93.9687V30.0313C367.268 28.6771 367.95 28 369.313 28H377.589C378.952 28 379.633 28.6771 379.633 30.0313V51.7952H380.023C380.737 50.0541 382.002 48.7321 383.82 47.8293C385.637 46.9265 387.552 46.4751 389.564 46.4751H392.679C397.807 46.4751 401.766 47.8293 404.557 50.5377C407.348 53.2461 408.744 57.1475 408.744 62.2418V80.2333C408.744 85.3276 407.348 89.229 404.557 91.9374C401.766 94.6458 397.807 96 392.679 96H369.313C367.95 96 367.268 95.3229 367.268 93.9687Z" fill="white"/>
<path d="M442.271 96H433.606C428.479 96 424.519 94.6458 421.728 91.9374C418.937 89.229 417.542 85.3276 417.542 80.2333V62.4353C417.542 57.3409 418.937 53.4395 421.728 50.7312C424.519 48.0228 428.479 46.6686 433.606 46.6686H442.271C447.334 46.6686 451.261 48.055 454.052 50.8279C456.908 53.5363 458.336 57.4054 458.336 62.4353V80.2333C458.336 85.2632 456.908 89.1645 454.052 91.9374C451.261 94.6458 447.334 96 442.271 96ZM435.456 85.4566H440.422C442.499 85.4566 443.959 85.0375 444.803 84.1991C445.711 83.3608 446.166 81.9099 446.166 79.8464V62.8222C446.166 60.7587 445.711 59.3077 444.803 58.4694C443.959 57.6311 442.499 57.2119 440.422 57.2119H435.456C433.379 57.2119 431.919 57.6311 431.075 58.4694C430.231 59.3077 429.809 60.7587 429.809 62.8222V79.8464C429.809 81.9099 430.231 83.3608 431.075 84.1991C431.919 85.0375 433.379 85.4566 435.456 85.4566Z" fill="white"/>
<path d="M476.035 96H466.201C464.514 96 464.059 95.3229 464.838 93.9687L477.106 70.8506L464.838 48.6999C464.189 47.3457 464.579 46.6686 466.007 46.6686H475.937C477.495 46.6686 478.501 47.3457 478.956 48.6999L485.089 63.4026H485.479L490.833 48.6999C491.288 47.3457 492.294 46.6686 493.852 46.6686H503.588C505.275 46.6686 505.697 47.3457 504.853 48.6999L493.17 70.8506L505.73 93.9687C506.054 94.5491 506.087 95.0327 505.827 95.4196C505.632 95.8065 505.21 96 504.561 96H494.533C493.17 96 492.197 95.3229 491.612 93.9687L485.479 79.1693H485.089L478.956 93.9687C478.501 95.3229 477.528 96 476.035 96Z" fill="white"/>
</svg>
